<svg xmlns="http://www.w3.org/2000/svg" viewBox="0 0 512 512">
  <defs>
    <linearGradient id="bg" x1="0" y1="0" x2="0" y2="1">
      <stop offset="0%" stop-color="#1b2735"/>
      <stop offset="100%" stop-color="#090a0f"/>
    </linearGradient>
    <linearGradient id="body" x1="0" y1="0" x2="1" y2="0">
      <stop offset="0%" stop-color="#e0a800"/>
      <stop offset="50%" stop-color="#ffcc00"/>
      <stop offset="100%" stop-color="#c98f00"/>
    </linearGradient>
  </defs>
  <rect width="512" height="512" rx="96" fill="url(#bg)"/>
  <g transform="translate(256 256)">
    <ellipse cx="0" cy="150" rx="90" ry="18" fill="rgba(0,0,0,0.35)"/>
    <rect x="-80" y="-160" width="160" height="300" rx="36" fill="url(#body)"/>
    <rect x="-56" y="-128" width="112" height="72" rx="14" fill="#1b2735"/>
    <rect x="-56" y="34" width="112" height="56" rx="14" fill="#1b2735"/>
    <rect x="-64" y="-176" width="52" height="20" rx="6" fill="#fff7cc"/>
    <rect x="12" y="-176" width="52" height="20" rx="6" fill="#fff7cc"/>
    <rect x="-64" y="126" width="52" height="16" rx="5" fill="#ff4d4d"/>
    <rect x="12" y="126" width="52" height="16" rx="5" fill="#ff4d4d"/>
    <rect x="-96" y="-96" width="20" height="70" rx="6" fill="#111"/>
    <rect x="76" y="-96" width="20" height="70" rx="6" fill="#111"/>
    <rect x="-96" y="30" width="20" height="70" rx="6" fill="#111"/>
    <rect x="76" y="30" width="20" height="70" rx="6" fill="#111"/>
  </g>
</svg>
